# xmcd
#
# Track frame offsets:
#	150
#	11296
#	22638
#	34742
#	44433
#	54668
#	64905
#	84846
#	94460
#	110371
#	121800
#	132801
#	146422
#	160537
#	170392
#	181360
#	197398
#	209205
#	236656
#
# Disc length: 3369 seconds
#
# Revision: 0
# Processed by: cddbd v1.5.2PL0 Copyright (c) Steve Scherf et al.
# Submitted via: audiograbber 1.83.01
#
DISCID=f40d2713
DTITLE=The Sweet Inspirations - The Complete Atlantic Singles Plus CD2
DYEAR=2014
DGENRE=Soul
TTITLE0=Crying in the Rain
TTITLE1=Everyday Will Be Like a Holliday
TTITLE2=Sweets for My Sweet
TTITLE3=Get a Little Order
TTITLE4=Don't Go
TTITLE5=Chained
TTITLE6=(Gotta Finf) A Brand New Lover PTS 1 and 2
TTITLE7=At Last I've Found a Love
TTITLE8=That's the Way My Baby Is
TTITLE9=Them Boys
TTITLE10=Flash in the Pan
TTITLE11=This World
TTITLE12=Light Sings
TTITLE13=Evidence
TTITLE14=Change Me Not
TTITLE15=Ain't Nothing Gonna Change Me
TTITLE16=I've Been Inspired to Love You
TTITLE17=Little Green Apples - Think - Something (Medley)
TTITLE18=Make It Easy On Yourself
EXTD=
EXTT0=
EXTT1=
EXTT2=
EXTT3=
EXTT4=
EXTT5=
EXTT6=
EXTT7=
EXTT8=
EXTT9=
EXTT10=
EXTT11=
EXTT12=
EXTT13=
EXTT14=
EXTT15=
EXTT16=
EXTT17=
EXTT18=
PLAYORDER=
